<svg xmlns="http://www.w3.org/2000/svg" width="200" height="200" viewBox="0 0 200 200">
  <circle cx="100" cy="100" r="100" fill="#FFFC00"/>
  <g transform="translate(40, 60)">
    <!-- Буква Я -->
    <path d="M0,0 L15,0 L25,15 L15,30 L0,30 L0,0 Z M10,10 L10,20 L15,20 L20,10 L15,0 L10,0 L10,10 Z" fill="#000000"/>
    <!-- Буква М -->
    <path d="M30,0 L40,0 L45,10 L50,0 L60,0 L60,30 L50,30 L50,15 L45,25 L40,15 L40,30 L30,30 L30,0 Z" fill="#000000"/>
    <!-- Нота -->
    <path d="M80,0 C90,0 100,10 100,20 C100,30 90,40 80,40 C70,40 60,30 60,20 C60,10 70,0 80,0 Z M80,10 C75,10 70,15 70,20 C70,25 75,30 80,30 C85,30 90,25 90,20 C90,15 85,10 80,10 Z" fill="#000000"/>
    <rect x="95" y="0" width="5" height="30" fill="#000000"/>
    <rect x="95" y="-10" width="15" height="10" fill="#000000"/>
  </g>
</svg>